<?xml version="1.0" encoding="utf-8"?>
<!-- Generator: Adobe Illustrator 16.0.0, SVG Export Plug-In . SVG Version: 6.00 Build 0)  -->
<!DOCTYPE svg PUBLIC "-//W3C//DTD SVG 1.1//EN" "http://www.w3.org/Graphics/SVG/1.1/DTD/svg11.dtd">
<svg version="1.1" id="Layer_1" xmlns="http://www.w3.org/2000/svg" xmlns:xlink="http://www.w3.org/1999/xlink" x="0px" y="0px"
	 width="960px" height="560px" viewBox="0 0 960 560" enable-background="new 0 0 960 560" xml:space="preserve">
<linearGradient id="SVGID_1_" gradientUnits="userSpaceOnUse" x1="479.9717" y1="560" x2="479.9716" y2="0.1646">
	<stop  offset="0" style="stop-color:#7F4E00;stop-opacity:0.2"/>
	<stop  offset="1" style="stop-color:#7F4E00;stop-opacity:0.35"/>
</linearGradient>
<path fill="url(#SVGID_1_)" d="M0,0.236v513.063l-0.012,9.479c-0.051,0.014-0.053,0.025,0,0.037L-0.057,560H960V345v-74.5V0.164
	L0,0.236z"/>
<g>
	
		<image overflow="visible" opacity="0.59" enable-background="new    " width="1207" height="334" xlink:href="5602AA34.png"  transform="matrix(1 0 0 1 -154.5 429.5)">
	</image>
	<g>
		<path fill="#FFFFFF" d="M856.541,518.085c-13.678-4.017-31.73-11.013-40.521-14.337c-18.098-6.642-36.008-12.303-53.729-17.011
			c-8.611-2.4-13.226,0.147-10.759,5.761c3.257,7.075,6.009,14.632,8.256,22.535c1.777,6.156-4.001,8.355-12.15,4.498
			c-8.178-3.857-20.45-5.663-27.784-3.744c-3.593,0.935-7.229,1.895-10.907,2.872c-7.487,1.999-12.641,6.856-11.251,10.705
			c1.431,3.848-3.979,0.746-11.689-6.893c-3.094-3.062-6.157-6.123-9.189-9.183c-7.649-7.638-21.727-15.448-31.301-17.214
			c-12.857-2.369-25.414-4.544-37.669-6.489c-9.17-1.464-19.284,2.245-23.231,7.885c-4.96,7.197-10.498,14.192-16.612,20.923
			c-4.795,5.289-10.29,8.568-11.685,7.533c-1.416-1.046-10.115-1.076-19.463-0.128c-8.727,0.879-17.522,1.724-26.39,2.529
			c-9.483,0.878-18.159,2.891-19.189,4.52c-1.012,1.641-3.248,0.017-4.854-3.551c-1.657-3.591-10.206-8.155-18.729-10.034
			c-9.217-2.046-18.146-3.973-26.791-5.818c-8.021-1.699-19.729,0.521-26.878,4.657c-4.448,2.609-9.035,5.168-13.761,7.686
			c-7.546,4.014-15.927,4.11-17.841,0.401c-2.005-3.725-10.791-6.842-19.752-7.061c-8.411-0.205-16.79-0.463-25.137-0.792
			c-8.892-0.35-22.865,2.665-31.569,6.943c-2.122,1.05-4.263,2.104-6.424,3.166c-8.815,4.322-13.88,4.863-10.778,1.031
			c3.018-3.804,0.53-9.149-5.11-12.193c-5.313-2.816-10.366-5.842-15.158-9.169c-5.147-3.521-17.473-5.12-28.273-2.74
			c-10.057,2.245-20.387,4.679-30.993,7.399c-11.352,2.882-22.268,7.088-23.806,8.83c-1.511,1.692-10.76,2.848-20.579,2.525
			c-8.5-0.303-17.013-0.628-25.539-0.973c-9.763-0.53-27.364,6.046-39.486,15.615c-11.987,9.235-27.46,15.241-33.643,11.549
			c-5.339-3.319-10.496-7.102-15.473-11.442c-5.712-5.026-21.672-2.401-36.308,8.761C0.781,557.941-13.134,569.371-27.352,582.1
			c-15.184,13.377-36.063,42.247-45.749,61.305c-8.987,17.586-17.881,34.781-26.681,51.599c-9.515,18.353-11.101,30.906-3.338,28
			c7.162-2.429,14.533-5.163,22.112-8.096c8.141-3.32,28.398-19.332,44.174-33.289c13.684-12.277,27.108-23.53,40.272-33.885
			c15.205-11.969,26.73-17.663,26.218-14.525c-0.569,3.24,9.3,1.045,21.801-3.944c11.627-4.625,23.24-8.822,34.839-12.631
			c12.507-4.241,32.558-13.923,44.154-21.462c4.029-2.651,8.023-5.248,11.981-7.789c11.521-7.441,25.865-11.452,32.704-9.763
			c6.863,1.595,23.466-0.927,36.045-4.865c11.221-3.563,22.191-6.816,32.91-9.849c12-3.395,22.239-2.161,23.619,2.263
			c0.168,0.563,0.341,1.124,0.518,1.687c1.318,4.429,12.224,7.754,23.875,7.745c10.799-0.018,21.629,0.121,32.492,0.401
			c11.709,0.283,28.329-2.643,36.416-6.761c0.551-0.278,1.101-0.558,1.649-0.836c8.098-4.131,14.876-3.422,15.762,1.688
			c0.007,0.046,0.015,0.092,0.022,0.139c0.773,5.078,10.104,11.256,20.857,13.921c11.464,2.828,23.213,5.866,35.249,9.121
			c11.229,3.026,27.599,2.811,35.522-0.95c2.029-0.955,4.036-1.919,6.021-2.894c7.8-3.821,19.064-3.196,25.923,1.82
			c6.783,4.973,22.67,9.673,34.8,10.176c11.268,0.443,22.465,0.848,33.591,1.183c11.999,0.398,23.671-3.838,25.753-9.448
			c2.219-5.538,13.353-8.202,25.283-5.744c15.049,3.119,30.366,6.254,45.953,9.309c12.441,2.466,27.094,0.061,31.806-5.429
			c4.025-4.607,7.799-9.301,11.315-14.046c4.181-5.61,16.541-5.694,28.492-0.203c2.656,1.224,5.33,2.441,8.021,3.655
			c12.046,5.489,30.191,7.867,39.558,5.296c4.561-1.235,9.077-2.496,13.552-3.774c9.229-2.646,13.688-9.892,9.995-15.895
			c-3.593-6.063,3.135-6.102,15.595-0.574c11.528,5.101,23.338,9.954,35.429,14.501c13.005,5.023,34.166,7.505,46.616,5.535
			c25.308-3.792,50.802-9.07,76.483-16.284c12.631-3.599,20.372-11.072,16.695-15.058c-6.017-6.855-12.891-12.02-20.622-15.048
			c-4.624-1.837-21.365-2.383-36.293-3.597C913.496,532.422,884.332,526.53,856.541,518.085z"/>
	</g>
</g>
<g>
	<g>
		
			<image overflow="visible" opacity="0.5" enable-background="new    " width="697" height="579" xlink:href="../../../7B05AC06.png"  transform="matrix(1 0 0 1 -25 -39.9995)">
		</image>
		<g>
			<path fill="#C577D8" d="M606.056,183.258c0-22.79-17.113-42.678-42.551-53.354l0.212-0.097
				c-29.264-12.675-50.289-33.598-58.451-57.941c-4.328-20.326-26.199-36.621-54.472-41.109l0.214-0.284
				C422.701,25.624,397.112,14.947,376.892,0h-61.439c9.014,4.475,18.69,7.882,28.826,10.062l-0.164,0.272
				c21.58,4.301,38.276,19.918,41.582,39.398c6.229,23.33,22.279,43.381,44.621,55.529l-0.162,0.092
				c19.416,10.231,32.479,29.292,32.479,51.133c0,26.923-19.844,49.626-46.978,56.76l0.179,0.28
				c-51.984,14.218-95.205,48.093-119.168,93.4l-0.168-0.262c-16.681,29.886-50.762,50.637-90.397,51.682l0.243,0.33
				c-57.764,2.425-111.967,26.225-150.763,65.898c-1.721,2.117-3.623,4.13-5.683,6.022c-0.057,0.063-0.115,0.125-0.172,0.188
				l-0.011-0.017c-12.166,11.104-29.848,18.103-49.539,18.103c-0.06,0-0.119-0.003-0.178-0.003v39.474
				c0.078,0,0.155,0.003,0.233,0.003c25.795,0,48.96-7.299,64.897-18.887l0.014,0.015c0.074-0.063,0.151-0.127,0.225-0.191
				c2.699-1.979,5.19-4.077,7.444-6.287c50.824-41.399,121.831-66.231,197.501-68.761l-0.318-0.348
				c51.922-1.09,96.568-22.739,118.421-53.927l0.221,0.273c31.393-47.276,88.013-82.625,156.111-97.458l-0.234-0.293
				C580.061,235.041,606.056,211.351,606.056,183.258z"/>
		</g>
	</g>
	<g>
		
			<image overflow="visible" opacity="0.28" enable-background="new    " width="661" height="647" xlink:href="../../../7B05AC0A.png"  transform="matrix(1 0 0 1 -99 -98.9995)">
		</image>
		<g>
			<path fill="#AA4DC1" d="M49.717,430.772l0.011,0.015c0.057-0.063,0.115-0.123,0.172-0.188c2.06-1.896,3.961-3.905,5.683-6.022
				c38.796-39.677,93-63.477,150.763-65.898l-0.243-0.33c39.635-1.045,73.716-21.796,90.397-51.682l0.168,0.262
				c23.963-45.308,67.184-79.182,119.168-93.4l-0.179-0.28c27.134-7.134,46.978-29.837,46.978-56.76
				c0-21.841-13.063-40.901-32.479-51.133l0.162-0.092c-22.342-12.148-38.392-32.199-44.619-55.529
				c-3.305-19.479-20.001-35.097-41.582-39.398l0.164-0.272C334.143,7.882,324.467,4.475,315.453,0H252.25
				c11.059,8.622,23.864,14.864,37.685,18.143l-0.138,0.253c18.174,3.996,32.234,18.506,35.018,36.605
				c5.247,21.676,18.763,40.306,37.576,51.592l-0.136,0.086c16.351,9.506,27.354,27.215,27.354,47.507
				c0,25.015-16.711,46.108-39.562,52.737l0.151,0.26c-43.778,13.21-80.177,44.683-100.357,86.779l-0.142-0.244
				c-14.048,27.771-42.75,47.048-76.128,48.021l0.205,0.307c-48.646,2.253-94.293,24.361-126.966,61.229
				c-1.449,1.97-3.05,3.838-4.785,5.6c-0.048,0.057-0.097,0.114-0.145,0.173l-0.009-0.014
				c-10.246,10.315-25.137,16.814-41.72,16.814c-0.05,0-0.1-0.003-0.15-0.003v23.027c0.06,0,0.119,0.003,0.178,0.003
				C19.869,448.873,37.552,441.878,49.717,430.772z"/>
		</g>
	</g>
	<g>
		
			<image overflow="visible" opacity="0.43" enable-background="new    " width="462" height="498" xlink:href="../../../7B05AC0D.png"  transform="matrix(1 0 0 1 -36 -35.9995)">
		</image>
		<g>
			<path fill="#9930B2" d="M41.87,409.028l0.009,0.014c0.048-0.059,0.097-0.116,0.145-0.173c1.735-1.762,3.336-3.63,4.785-5.603
				c32.673-36.861,78.32-58.973,126.966-61.226l-0.205-0.307c33.378-0.974,62.08-20.251,76.128-48.021l0.142,0.244
				c20.181-42.096,56.579-73.569,100.357-86.779l-0.151-0.26c22.851-6.628,39.562-27.722,39.562-52.737
				c0-20.292-11.003-38.001-27.354-47.507l0.136-0.086C343.577,95.305,330.061,76.676,324.814,55
				c-2.784-18.099-16.844-32.609-35.018-36.605l0.138-0.253C276.113,14.864,263.309,8.622,252.25,0h-48.845
				c1.078,2.261,2.028,4.599,2.824,7.013c12.52,17.984,31.323,30.79,52.862,35.757l-0.123,0.22
				c16.241,3.471,28.805,16.075,31.293,31.794c4.688,18.828,16.767,35.009,33.578,44.813l-0.122,0.074
				c14.611,8.257,24.444,23.639,24.444,41.265c0,21.727-14.934,40.049-35.354,45.806l0.135,0.226
				c-39.121,11.475-71.647,38.812-89.681,75.376l-0.127-0.212c-12.554,24.119-38.202,40.865-68.029,41.708l0.183,0.27
				c-43.471,1.957-84.262,21.158-113.458,53.181c-1.295,1.71-2.726,3.334-4.276,4.863c-0.042,0.051-0.087,0.1-0.129,0.147
				l-0.008-0.012c-9.156,8.962-22.463,14.607-37.282,14.607c-0.045,0-0.089-0.006-0.134-0.006v28.947c0.05,0,0.1,0.003,0.15,0.003
				C16.733,425.846,31.624,419.347,41.87,409.028z"/>
		</g>
	</g>
	<path fill="#9930B2" d="M102.006,0H0v0.164l101.983-0.119C101.991,0.03,101.999,0.015,102.006,0z"/>
	<g>
		
			<image overflow="visible" opacity="0.26" enable-background="new    " width="439" height="487" xlink:href="../../../7B05AC0E.png"  transform="matrix(1 0 0 1 -45 -45)">
		</image>
		<g>
			<path fill="#84199E" d="M37.416,382.291l0.008,0.012c0.042-0.051,0.087-0.1,0.129-0.147c1.55-1.529,2.981-3.153,4.276-4.863
				c29.197-32.021,69.988-51.224,113.458-53.181l-0.183-0.27c29.828-0.843,55.476-17.589,68.029-41.708l0.127,0.212
				c18.034-36.563,50.56-63.901,89.681-75.376l-0.135-0.226c20.42-5.757,35.354-24.079,35.354-45.806
				c0-17.626-9.833-33.008-24.444-41.265l0.122-0.074c-16.811-9.804-28.89-25.985-33.578-44.813
				c-2.488-15.72-15.052-28.324-31.293-31.794l0.123-0.22c-21.539-4.967-40.342-17.773-52.862-35.757
				c-0.796-2.414-1.746-4.752-2.824-7.013H102.006c-0.007,0.015-0.015,0.03-0.022,0.045L0,0.164V267v9.296v5.497v6.119v5.414v12.914
				v14.15v19.124v57.378c0.045,0,0.089,0.006,0.134,0.006C14.953,396.898,28.26,391.253,37.416,382.291z"/>
		</g>
	</g>
	<polygon fill="#C577D8" points="203.404,0 252.25,0 315.453,0 376.892,0 437,0 437,-67 -46,-67 -46,0 0,0 102.006,0 	"/>
</g>
</svg>
