<?xml version="1.0" encoding="utf-8"?>
<!-- Generator: Adobe Illustrator 16.0.0, SVG Export Plug-In . SVG Version: 6.00 Build 0)  -->
<!DOCTYPE svg PUBLIC "-//W3C//DTD SVG 1.1//EN" "http://www.w3.org/Graphics/SVG/1.1/DTD/svg11.dtd">
<svg version="1.1" id="Layer_1" xmlns="http://www.w3.org/2000/svg" xmlns:xlink="http://www.w3.org/1999/xlink" x="0px" y="0px"
	 width="960px" height="560px" viewBox="0 0 960 560" enable-background="new 0 0 960 560" xml:space="preserve">
<path fill="#D7BCDD" d="M0,0.236l960-0.072V345c0,0-177.892-39.945-237.104,39.659c-59.211,79.604-194.736,86.843-250,77.632
	c-55.263-9.211-204.604-40.132-246.709,7.895C184.082,518.213-3.818,522.16,0,522.817"/>
<g>
	<g>
		
			<image overflow="visible" opacity="0.5" enable-background="new    " width="697" height="579" xlink:href="DCFE5829.png"  transform="matrix(1 0 0 1 -25 -40.0005)">
		</image>
		<g>
			<path fill="#C577D8" d="M606.056,183.258c0-22.79-17.115-42.678-42.551-53.354l0.212-0.097
				c-29.264-12.675-50.289-33.598-58.451-57.941c-4.328-20.326-26.201-36.621-54.472-41.109l0.214-0.284
				C422.701,25.624,397.112,14.947,376.892,0h-61.439c9.014,4.475,18.69,7.882,28.826,10.062l-0.164,0.272
				c21.58,4.301,38.276,19.918,41.582,39.398c6.229,23.33,22.279,43.381,44.619,55.529l-0.162,0.092
				c19.416,10.231,32.48,29.292,32.48,51.133c0,26.923-19.844,49.626-46.978,56.76l0.179,0.28
				c-51.984,14.218-95.205,48.093-119.168,93.4l-0.168-0.262c-16.681,29.886-50.762,50.637-90.397,51.682l0.243,0.33
				c-57.764,2.425-111.967,26.223-150.763,65.898c-1.721,2.117-3.623,4.13-5.683,6.024c-0.057,0.063-0.115,0.125-0.172,0.188
				l-0.011-0.015c-12.166,11.104-29.848,18.101-49.539,18.101c-0.06,0-0.119-0.003-0.178-0.003v39.474
				c0.078,0,0.155,0.003,0.233,0.003c25.795,0,48.96-7.299,64.897-18.887l0.014,0.015c0.074-0.063,0.151-0.127,0.225-0.193
				c2.699-1.979,5.19-4.077,7.444-6.287c50.824-41.399,121.831-66.231,197.501-68.761l-0.318-0.346
				c51.922-1.09,96.568-22.741,118.421-53.927l0.221,0.273c31.393-47.276,88.013-82.624,156.111-97.458l-0.234-0.293
				C580.061,235.041,606.056,211.351,606.056,183.258z"/>
		</g>
	</g>
	<g>
		
			<image overflow="visible" opacity="0.28" enable-background="new    " width="661" height="647" xlink:href="DCFE582B.png"  transform="matrix(1 0 0 1 -99 -99.0005)">
		</image>
		<g>
			<path fill="#AA4DC1" d="M49.717,430.772l0.011,0.015c0.057-0.063,0.115-0.123,0.172-0.188c2.06-1.896,3.961-3.907,5.683-6.024
				c38.796-39.677,93-63.475,150.763-65.898l-0.243-0.33c39.635-1.045,73.716-21.796,90.397-51.682l0.168,0.262
				c23.963-45.308,67.184-79.182,119.168-93.4l-0.179-0.28c27.134-7.134,46.978-29.837,46.978-56.76
				c0-21.841-13.064-40.901-32.48-51.133l0.162-0.092c-22.34-12.148-38.39-32.199-44.619-55.529
				c-3.305-19.479-20.001-35.097-41.582-39.398l0.164-0.272C334.143,7.882,324.467,4.475,315.453,0H252.25
				c11.059,8.622,23.864,14.864,37.685,18.143l-0.138,0.253c18.174,3.996,32.234,18.506,35.018,36.605
				c5.247,21.676,18.763,40.306,37.576,51.592l-0.136,0.086c16.351,9.506,27.354,27.215,27.354,47.507
				c0,25.015-16.711,46.108-39.562,52.737l0.151,0.26c-43.778,13.21-80.177,44.683-100.357,86.779l-0.142-0.244
				c-14.048,27.769-42.75,47.048-76.128,48.02l0.205,0.307c-48.646,2.253-94.293,24.361-126.966,61.227
				c-1.449,1.97-3.05,3.838-4.785,5.6c-0.048,0.057-0.097,0.114-0.145,0.173l-0.009-0.014
				c-10.246,10.317-25.137,16.816-41.72,16.816c-0.05,0-0.1-0.003-0.15-0.003v23.027c0.06,0,0.119,0.003,0.178,0.003
				C19.869,448.873,37.552,441.878,49.717,430.772z"/>
		</g>
	</g>
	<g>
		
			<image overflow="visible" opacity="0.43" enable-background="new    " width="462" height="498" xlink:href="DCFE582E.png"  transform="matrix(1 0 0 1 -36 -36.0005)">
		</image>
		<g>
			<path fill="#9930B2" d="M41.87,409.028l0.009,0.014c0.048-0.059,0.097-0.116,0.145-0.173c1.735-1.762,3.336-3.63,4.785-5.601
				c32.673-36.863,78.32-58.973,126.966-61.226l-0.205-0.307c33.378-0.972,62.08-20.251,76.128-48.02l0.142,0.244
				c20.181-42.096,56.579-73.569,100.357-86.779l-0.151-0.26c22.851-6.628,39.562-27.722,39.562-52.737
				c0-20.292-11.003-38.001-27.354-47.507l0.136-0.086C343.577,95.305,330.061,76.676,324.814,55
				c-2.784-18.099-16.844-32.609-35.018-36.605l0.138-0.253C276.113,14.864,263.309,8.622,252.25,0h-48.845
				c1.078,2.261,2.028,4.599,2.824,7.013c12.52,17.984,31.323,30.79,52.862,35.757l-0.123,0.22
				c16.241,3.471,28.805,16.075,31.293,31.794c4.688,18.828,16.767,35.009,33.578,44.813l-0.122,0.074
				c14.611,8.257,24.444,23.639,24.444,41.265c0,21.727-14.934,40.049-35.354,45.806l0.135,0.226
				c-39.121,11.475-71.647,38.812-89.681,75.376l-0.127-0.212c-12.554,24.119-38.202,40.865-68.029,41.708l0.183,0.268
				c-43.471,1.957-84.262,21.16-113.458,53.181c-1.295,1.71-2.726,3.334-4.276,4.863c-0.042,0.051-0.087,0.1-0.129,0.149
				l-0.008-0.012c-9.156,8.962-22.463,14.607-37.282,14.607c-0.045,0-0.089-0.004-0.134-0.004v28.947c0.05,0,0.1,0.003,0.15,0.003
				C16.733,425.846,31.624,419.347,41.87,409.028z"/>
		</g>
	</g>
	<path fill="#9930B2" d="M102.006,0H0v0.164l101.983-0.119C101.991,0.03,101.999,0.015,102.006,0z"/>
	<g>
		
			<image overflow="visible" opacity="0.26" enable-background="new    " width="439" height="487" xlink:href="DCFE582F.png"  transform="matrix(1 0 0 1 -45 -44.9995)">
		</image>
		<g>
			<path fill="#84199E" d="M37.416,382.291l0.008,0.012c0.042-0.051,0.087-0.1,0.129-0.149c1.55-1.529,2.981-3.153,4.276-4.863
				c29.197-32.021,69.988-51.224,113.458-53.181l-0.183-0.268c29.828-0.843,55.476-17.589,68.029-41.708l0.127,0.212
				c18.034-36.563,50.56-63.901,89.681-75.376l-0.135-0.226c20.42-5.757,35.354-24.079,35.354-45.806
				c0-17.626-9.833-33.008-24.444-41.265l0.122-0.074c-16.811-9.804-28.89-25.985-33.578-44.813
				c-2.488-15.72-15.052-28.324-31.293-31.794l0.123-0.22c-21.539-4.967-40.342-17.773-52.862-35.757
				c-0.796-2.414-1.746-4.752-2.824-7.013H102.006c-0.007,0.015-0.015,0.03-0.022,0.045L0,0.164V267v9.296v5.497v6.119v5.414v12.914
				v14.152v19.124v57.378c0.045,0,0.089,0.004,0.134,0.004C14.953,396.898,28.26,391.253,37.416,382.291z"/>
		</g>
	</g>
	<polygon fill="#C577D8" points="203.404,0 252.25,0 315.453,0 376.892,0 437,0 437,-67 -46,-67 -46,0 0,0 102.006,0 	"/>
</g>
</svg>
